<svg width="12" height="12" viewBox="0 0 12 12" fill="none" xmlns="http://www.w3.org/2000/svg">
<path d="M2.68607 11.9997H0.198214V3.98813H2.68607V11.9997ZM1.4408 2.89527C0.645268 2.89527 0 2.23634 0 1.4408C5.6941e-09 1.05868 0.151799 0.692205 0.422002 0.422002C0.692205 0.151799 1.05868 0 1.4408 0C1.82293 0 2.1894 0.151799 2.45961 0.422002C2.72981 0.692205 2.88161 1.05868 2.88161 1.4408C2.88161 2.23634 2.23607 2.89527 1.4408 2.89527ZM11.9973 11.9997H9.51482V8.09973C9.51482 7.17027 9.49607 5.9783 8.22134 5.9783C6.92786 5.9783 6.72964 6.98813 6.72964 8.03277V11.9997H4.24446V3.98813H6.63054V5.08098H6.66536C6.9975 4.45152 7.80884 3.78723 9.01929 3.78723C11.5371 3.78723 12 5.44527 12 7.59884V11.9997H11.9973Z" fill="white"/>
</svg>
