<svg width="101" height="49" viewBox="0 0 101 49" fill="none" xmlns="http://www.w3.org/2000/svg">
<g clip-path="url(#clip0_2549_7)">
<mask id="mask0_2549_7" style="mask-type:luminance" maskUnits="userSpaceOnUse" x="1" y="1" width="34" height="46">
<path fill-rule="evenodd" clip-rule="evenodd" d="M1.48485 1.48485H34.1515V34.1515H1.48485V1.48485ZM34.1515 15.5909C30.0165 15.5909 26.0509 17.2335 23.1271 20.1574C20.2032 23.0812 18.5606 27.0469 18.5606 31.1818C18.5606 35.3168 20.2032 39.2824 23.1271 42.2063C26.0509 45.1301 30.0165 46.7727 34.1515 46.7727V42.3182C31.198 42.3182 28.3654 41.1449 26.2769 39.0564C24.1884 36.9679 23.0152 34.1354 23.0152 31.1818C23.0152 28.2283 24.1884 25.3957 26.2769 23.3072C28.3654 21.2187 31.198 20.0455 34.1515 20.0455M1.48485 20.0455C4.4384 20.0455 7.27097 21.2187 9.35945 23.3072C11.4479 25.3957 12.6212 28.2283 12.6212 31.1818C12.6212 34.1354 11.4479 36.9679 9.35945 39.0564C7.27097 41.1449 4.4384 42.3182 1.48485 42.3182V46.7727C5.61981 46.7727 9.58542 45.1301 12.5093 42.2063C15.4331 39.2824 17.0758 35.3168 17.0758 31.1818C17.0758 27.0469 15.4331 23.0812 12.5093 20.1574C9.58542 17.2335 5.61981 15.5909 1.48485 15.5909V20.0455Z" fill="white"/>
</mask>
<g mask="url(#mask0_2549_7)">
<path d="M17.8182 31.1818C25.1987 31.1818 31.1818 25.1987 31.1818 17.8182C31.1818 10.4377 25.1987 4.45455 17.8182 4.45455C10.4376 4.45455 4.45454 10.4377 4.45454 17.8182C4.45454 25.1987 10.4376 31.1818 17.8182 31.1818Z" stroke="white" stroke-width="2.9697"/>
</g>
<mask id="mask1_2549_7" style="mask-type:luminance" maskUnits="userSpaceOnUse" x="0" y="17" width="18" height="19">
<path d="M17.8182 17.8182L0 35.6364H17.8182V17.8182Z" fill="white"/>
</mask>
<g mask="url(#mask1_2549_7)">
<path d="M17.8182 31.1818C25.1987 31.1818 31.1818 25.1987 31.1818 17.8182C31.1818 10.4377 25.1987 4.45455 17.8182 4.45455C10.4376 4.45455 4.45454 10.4377 4.45454 17.8182C4.45454 25.1987 10.4376 31.1818 17.8182 31.1818Z" stroke="white" stroke-width="2.9697"/>
</g>
<path d="M27.2677 8.36866C29.7739 10.8748 31.1818 14.2739 31.1818 17.8182C31.1818 21.3624 29.7739 24.7615 27.2677 27.2677" stroke="white" stroke-width="2.9697"/>
<path d="M17.8182 4.45455C14.2739 4.45455 10.8748 5.8625 8.36866 8.36867C5.86249 10.8748 4.45454 14.2739 4.45454 17.8182C4.45454 21.3624 5.86249 24.7615 8.36866 27.2677C10.8748 29.7739 14.2739 31.1818 17.8182 31.1818" stroke="white" stroke-width="2.9697"/>
<mask id="mask2_2549_7" style="mask-type:luminance" maskUnits="userSpaceOnUse" x="34" y="1" width="33" height="46">
<path fill-rule="evenodd" clip-rule="evenodd" d="M34.1515 1.48485H66.8182V34.1515H34.1515V1.48485ZM66.8182 15.5909C62.6832 15.5909 58.7176 17.2335 55.7937 20.1574C52.8699 23.0812 51.2273 27.0469 51.2273 31.1818C51.2273 35.3168 52.8699 39.2824 55.7937 42.2063C58.7176 45.1301 62.6832 46.7727 66.8182 46.7727V42.3182C63.8646 42.3182 61.0321 41.1449 58.9436 39.0564C56.8551 36.9679 55.6818 34.1354 55.6818 31.1818C55.6818 28.2283 56.8551 25.3957 58.9436 23.3072C61.0321 21.2187 63.8646 20.0455 66.8182 20.0455M34.1515 20.0455C37.1051 20.0455 39.9376 21.2187 42.0261 23.3072C44.1146 25.3957 45.2879 28.2283 45.2879 31.1818C45.2879 34.1354 44.1146 36.9679 42.0261 39.0564C39.9376 41.1449 37.1051 42.3182 34.1515 42.3182V46.7727C38.2865 46.7727 42.2521 45.1301 45.176 42.2063C48.0998 39.2824 49.7424 35.3168 49.7424 31.1818C49.7424 27.0469 48.0998 23.0812 45.176 20.1574C42.2521 17.2335 38.2865 15.5909 34.1515 15.5909V20.0455Z" fill="white"/>
</mask>
<g mask="url(#mask2_2549_7)">
<path d="M50.4849 31.1818C57.8654 31.1818 63.8485 25.1987 63.8485 17.8182C63.8485 10.4377 57.8654 4.45455 50.4849 4.45455C43.1043 4.45455 37.1212 10.4377 37.1212 17.8182C37.1212 25.1987 43.1043 31.1818 50.4849 31.1818Z" stroke="white" stroke-width="2.9697"/>
</g>
<mask id="mask3_2549_7" style="mask-type:luminance" maskUnits="userSpaceOnUse" x="32" y="17" width="19" height="19">
<path d="M50.4849 17.8182L32.6667 35.6364H50.4849V17.8182Z" fill="white"/>
</mask>
<g mask="url(#mask3_2549_7)">
<path d="M50.4849 31.1818C57.8654 31.1818 63.8485 25.1987 63.8485 17.8182C63.8485 10.4377 57.8654 4.45455 50.4849 4.45455C43.1043 4.45455 37.1212 10.4377 37.1212 17.8182C37.1212 25.1987 43.1043 31.1818 50.4849 31.1818Z" stroke="white" stroke-width="2.9697"/>
</g>
<path d="M59.9344 8.36866C62.4405 10.8748 63.8485 14.2739 63.8485 17.8182C63.8485 21.3624 62.4405 24.7615 59.9344 27.2677" stroke="white" stroke-width="2.9697"/>
<mask id="mask4_2549_7" style="mask-type:luminance" maskUnits="userSpaceOnUse" x="66" y="1" width="34" height="46">
<path fill-rule="evenodd" clip-rule="evenodd" d="M66.8182 1.48485H99.4849V34.1515H66.8182V1.48485ZM99.4849 15.5909C95.3499 15.5909 91.3843 17.2335 88.4604 20.1574C85.5366 23.0812 83.8939 27.0469 83.8939 31.1818C83.8939 35.3168 85.5366 39.2824 88.4604 42.2063C91.3843 45.1301 95.3499 46.7727 99.4849 46.7727V42.3182C96.5313 42.3182 93.6987 41.1449 91.6103 39.0564C89.5218 36.9679 88.3485 34.1354 88.3485 31.1818C88.3485 28.2283 89.5218 25.3957 91.6103 23.3072C93.6987 21.2187 96.5313 20.0455 99.4849 20.0455M66.8182 20.0455C69.7717 20.0455 72.6043 21.2187 74.6928 23.3072C76.7813 25.3957 77.9545 28.2283 77.9545 31.1818C77.9545 34.1354 76.7813 36.9679 74.6928 39.0564C72.6043 41.1449 69.7717 42.3182 66.8182 42.3182V46.7727C70.9532 46.7727 74.9188 45.1301 77.8426 42.2063C80.7665 39.2824 82.4091 35.3168 82.4091 31.1818C82.4091 27.0469 80.7665 23.0812 77.8426 20.1574C74.9188 17.2335 70.9532 15.5909 66.8182 15.5909V20.0455Z" fill="white"/>
</mask>
<g mask="url(#mask4_2549_7)">
<path d="M83.1515 31.1818C90.532 31.1818 96.5152 25.1987 96.5152 17.8182C96.5152 10.4377 90.532 4.45455 83.1515 4.45455C75.771 4.45455 69.7879 10.4377 69.7879 17.8182C69.7879 25.1987 75.771 31.1818 83.1515 31.1818Z" stroke="white" stroke-width="2.9697"/>
</g>
<mask id="mask5_2549_7" style="mask-type:luminance" maskUnits="userSpaceOnUse" x="65" y="17" width="19" height="19">
<path d="M83.1515 17.8182L65.3333 35.6364H83.1515V17.8182Z" fill="white"/>
</mask>
<g mask="url(#mask5_2549_7)">
<path d="M83.1515 31.1818C90.532 31.1818 96.5152 25.1987 96.5152 17.8182C96.5152 10.4377 90.532 4.45455 83.1515 4.45455C75.771 4.45455 69.7879 10.4377 69.7879 17.8182C69.7879 25.1987 75.771 31.1818 83.1515 31.1818Z" stroke="white" stroke-width="2.9697"/>
</g>
<path d="M92.601 8.36866C95.1072 10.8748 96.5151 14.2739 96.5151 17.8182C96.5151 21.3624 95.1072 24.7615 92.601 27.2677" stroke="white" stroke-width="2.9697"/>
<path d="M83.1515 4.45455C86.6958 4.45455 90.0949 5.8625 92.601 8.36867C95.1072 10.8748 96.5152 14.2739 96.5152 17.8182C96.5152 21.3624 95.1072 24.7615 92.601 27.2677C90.0949 29.7739 86.6958 31.1818 83.1515 31.1818" stroke="white" stroke-width="2.9697"/>
<mask id="mask6_2549_7" style="mask-type:luminance" maskUnits="userSpaceOnUse" x="17" y="2" width="34" height="46">
<path fill-rule="evenodd" clip-rule="evenodd" d="M50.4848 47.5152L17.8182 47.5152L17.8182 14.8485L50.4848 14.8485L50.4848 47.5152ZM17.8182 33.4091C21.9531 33.4091 25.9188 31.7665 28.8426 28.8426C31.7665 25.9188 33.4091 21.9531 33.4091 17.8182C33.4091 13.6832 31.7665 9.71761 28.8426 6.79374C25.9188 3.86988 21.9531 2.22727 17.8182 2.22727V6.68182C20.7717 6.68182 23.6043 7.85511 25.6928 9.94358C27.7813 12.0321 28.9545 14.8646 28.9545 17.8182C28.9545 20.7717 27.7813 23.6043 25.6928 25.6928C23.6043 27.7813 20.7717 28.9545 17.8182 28.9545M50.4848 28.9545C47.5313 28.9545 44.6987 27.7813 42.6102 25.6928C40.5218 23.6043 39.3485 20.7717 39.3485 17.8182C39.3485 14.8646 40.5218 12.0321 42.6102 9.94358C44.6987 7.85511 47.5313 6.68182 50.4848 6.68182V2.22727C46.3499 2.22727 42.3843 3.86988 39.4604 6.79374C36.5365 9.71761 34.8939 13.6832 34.8939 17.8182C34.8939 21.9531 36.5365 25.9188 39.4604 28.8426C42.3843 31.7665 46.3499 33.4091 50.4848 33.4091V28.9545Z" fill="white"/>
</mask>
<g mask="url(#mask6_2549_7)">
<path d="M34.1515 17.8182C26.771 17.8182 20.7879 23.8013 20.7879 31.1818C20.7879 38.5624 26.771 44.5455 34.1515 44.5455C41.532 44.5455 47.5152 38.5624 47.5152 31.1818C47.5152 23.8013 41.532 17.8182 34.1515 17.8182Z" stroke="white" stroke-width="2.9697"/>
</g>
<mask id="mask7_2549_7" style="mask-type:luminance" maskUnits="userSpaceOnUse" x="34" y="13" width="18" height="19">
<path d="M34.1515 31.1818L51.9697 13.3636L34.1515 13.3636V31.1818Z" fill="white"/>
</mask>
<g mask="url(#mask7_2549_7)">
<path d="M34.1515 17.8182C26.771 17.8182 20.7879 23.8013 20.7879 31.1818C20.7879 38.5624 26.771 44.5455 34.1515 44.5455C41.532 44.5455 47.5152 38.5624 47.5152 31.1818C47.5152 23.8013 41.532 17.8182 34.1515 17.8182Z" stroke="white" stroke-width="2.9697"/>
</g>
<path d="M24.702 40.6313C22.1958 38.1252 20.7879 34.7261 20.7879 31.1818C20.7879 27.6376 22.1958 24.2385 24.702 21.7323" stroke="white" stroke-width="2.9697"/>
<mask id="mask8_2549_7" style="mask-type:luminance" maskUnits="userSpaceOnUse" x="50" y="2" width="34" height="46">
<path fill-rule="evenodd" clip-rule="evenodd" d="M83.1515 47.5152L50.4848 47.5152L50.4848 14.8485L83.1515 14.8485V47.5152ZM50.4848 33.4091C54.6198 33.4091 58.5854 31.7665 61.5093 28.8426C64.4331 25.9188 66.0757 21.9531 66.0757 17.8182C66.0757 13.6832 64.4331 9.71761 61.5093 6.79374C58.5854 3.86988 54.6198 2.22727 50.4848 2.22727V6.68182C53.4384 6.68182 56.271 7.85511 58.3594 9.94358C60.4479 12.0321 61.6212 14.8646 61.6212 17.8182C61.6212 20.7717 60.4479 23.6043 58.3594 25.6928C56.271 27.7813 53.4384 28.9545 50.4848 28.9545M83.1515 28.9545C80.198 28.9545 77.3654 27.7813 75.2769 25.6928C73.1884 23.6043 72.0151 20.7717 72.0151 17.8182C72.0151 14.8646 73.1884 12.0321 75.2769 9.94358C77.3654 7.85511 80.198 6.68182 83.1515 6.68182V2.22727C79.0165 2.22727 75.0509 3.86988 72.1271 6.79374C69.2032 9.71761 67.5606 13.6832 67.5606 17.8182C67.5606 21.9531 69.2032 25.9188 72.1271 28.8426C75.0509 31.7665 79.0165 33.4091 83.1515 33.4091V28.9545Z" fill="white"/>
</mask>
<g mask="url(#mask8_2549_7)">
<path d="M66.8182 17.8182C59.4376 17.8182 53.4545 23.8013 53.4545 31.1818C53.4545 38.5624 59.4376 44.5455 66.8182 44.5455C74.1987 44.5455 80.1818 38.5624 80.1818 31.1818C80.1818 23.8013 74.1987 17.8182 66.8182 17.8182Z" stroke="white" stroke-width="2.9697"/>
</g>
<mask id="mask9_2549_7" style="mask-type:luminance" maskUnits="userSpaceOnUse" x="66" y="13" width="19" height="19">
<path d="M66.8182 31.1818L84.6364 13.3636L66.8182 13.3636V31.1818Z" fill="white"/>
</mask>
<g mask="url(#mask9_2549_7)">
<path d="M66.8182 17.8182C59.4376 17.8182 53.4545 23.8013 53.4545 31.1818C53.4545 38.5624 59.4376 44.5455 66.8182 44.5455C74.1987 44.5455 80.1818 38.5624 80.1818 31.1818C80.1818 23.8013 74.1987 17.8182 66.8182 17.8182Z" stroke="white" stroke-width="2.9697"/>
</g>
<path d="M57.3687 40.6313C54.8625 38.1252 53.4545 34.7261 53.4545 31.1818C53.4545 27.6376 54.8625 24.2385 57.3687 21.7323" stroke="white" stroke-width="2.9697"/>
</g>
<defs>
<clipPath id="clip0_2549_7">
<rect width="100.97" height="49" fill="white"/>
</clipPath>
</defs>
</svg>
