<svg width="15" height="15" viewBox="0 0 15 15" fill="none" xmlns="http://www.w3.org/2000/svg">
<path d="M10.1785 4.5977C9.73987 1.89655 8.70538 0 7.50151 0C6.29764 0 5.26316 1.89655 4.82456 4.5977H10.1785ZM4.5977 7.50151C4.5977 8.17302 4.634 8.8173 4.69752 9.43739H10.3025C10.366 8.8173 10.4023 8.17302 10.4023 7.50151C10.4023 6.83001 10.366 6.18572 10.3025 5.56564H4.69752C4.634 6.18572 4.5977 6.83001 4.5977 7.50151ZM14.4192 4.5977C13.5541 2.54386 11.8028 0.955838 9.64005 0.31458C10.3781 1.33696 10.8863 2.87659 11.1525 4.5977H14.4192ZM5.35995 0.31458C3.20024 0.955838 1.44586 2.54386 0.583787 4.5977H3.85057C4.11373 2.87659 4.6219 1.33696 5.35995 0.31458ZM14.7429 5.56564H11.2734C11.337 6.20085 11.3733 6.85118 11.3733 7.50151C11.3733 8.15185 11.337 8.80218 11.2734 9.43739H14.7399C14.9062 8.8173 15 8.17302 15 7.50151C15 6.83001 14.9062 6.18572 14.7429 5.56564ZM3.62976 7.50151C3.62976 6.85118 3.66606 6.20085 3.72958 5.56564H0.260133C0.0967937 6.18572 0 6.83001 0 7.50151C0 8.17302 0.0967937 8.8173 0.260133 9.43739H3.72656C3.66606 8.80218 3.62976 8.15185 3.62976 7.50151ZM4.82456 10.4053C5.26316 13.1065 6.29764 15.003 7.50151 15.003C8.70538 15.003 9.73987 13.1065 10.1785 10.4053H4.82456ZM9.64307 14.6884C11.8028 14.0472 13.5572 12.4592 14.4223 10.4053H11.1555C10.8893 12.1264 10.3811 13.6661 9.64307 14.6884ZM0.583787 10.4053C1.44888 12.4592 3.20024 14.0472 5.36298 14.6884C4.62492 13.6661 4.11676 12.1264 3.85057 10.4053H0.583787Z" fill="black"/>
</svg>
